#!OML:ASF E:\Steps\Project 1\Capture day 1\Session 2\Subject.ASF
:FULLY-SPECIFIED
:DEGREES
237
root 7.70485 16.1127 26.573 -154.831 3.85756 176.093
lowerback -25.5308 -0.678378 -8.6313
upperback 0.0446687 2.64816 -3.06085
thorax 14.258 0.925851 2.44221
lowerneck -2.45224 -1.11668 -1.4891
upperneck 16.2546 -2.77231 2.98089
head 5.34934 -1.6065 0.995693
rclavicle 9.34288e-015 -6.36111e-015
rhumerus -32.1994 -9.10144 -84.6617
rradius 39.3752
rwrist -4.16621
rhand -5.60571 -53.2588
rfingers 7.12502
rthumb 20.2113 -82.2273
lclavicle 9.34288e-015 -6.36111e-015
lhumerus -31.6637 23.6211 67.8985
lradius 12.041
lwrist -20.0321
lhand -20.8073 -13.3231
lfingers 7.12502
lthumb 5.56036 16.584
rfemur -23.8001 3.96633 19.6063
rtibia 41.6279
rfoot -14.7202 0.919662
rtoes -30.053
lfemur -37.7742 -8.21322 -23.1491
ltibia 18.428
lfoot -7.46572 2.00609
ltoes -22.7945
238
root 7.68849 16.1191 26.4692 -154.865 3.74974 176.153
lowerback -25.6097 -0.81701 -8.52621
upperback 0.0724486 2.43007 -2.99267
thorax 14.3569 0.824815 2.38258
lowerneck -2.61887 -1.06082 -1.59233
upperneck 16.3123 -2.6795 2.95354
head 5.39424 -1.56556 1.00764
rclavicle -1.15295e-014 8.50798e-014
rhumerus -32.3205 -9.08888 -84.3624
rradius 39.1741
rwrist -4.11038
rhand -5.71471 -53.6192
rfingers 7.12502
rthumb 20.1066 -82.5988
lclavicle -1.15295e-014 8.50798e-014
lhumerus -31.4138 23.3236 68.2825
lradius 11.9488
lwrist -19.7296
lhand -20.6607 -13.087
lfingers 7.12502
lthumb 5.70197 16.8162
rfemur -25.0541 3.16298 19.5844
rtibia 44.1856
rfoot -12.92 1.59217
rtoes -31.1095
lfemur -37.1524 -8.33039 -23.2058
ltibia 18.1322
lfoot -7.66763 1.93496
ltoes -22.5554
239
root 7.67397 16.1223 26.3769 -154.825 3.54211 176.107
lowerback -25.5917 -1.00218 -8.58671
upperback 0.0369113 2.19717 -2.943
thorax 14.3232 0.718 2.38921
lowerneck -2.54255 -1.03709 -1.56626
upperneck 16.1639 -2.63515 2.95042
head 5.33369 -1.54093 1.00626
rclavicle 8.74653e-015 -3.18055e-015
rhumerus -32.4456 -9.33532 -83.9712
rradius 38.9359
rwrist -3.92514
rhand -5.98158 -53.7911
rfingers 7.12502
rthumb 19.8501 -82.7974
lclavicle 8.74653e-015 -3.18055e-015
lhumerus -31.2156 22.7166 68.7528
lradius 12.023
lwrist -19.3058
lhand -20.3087 -13.2104
lfingers 7.12502
lthumb 6.04179 16.6834
rfemur -26.5434 2.27351 19.5245
rtibia 46.7747
rfoot -10.8817 1.85065
rtoes -33.0009
lfemur -36.7315 -8.45843 -23.3892
ltibia 17.9876
lfoot -7.76078 1.81886
ltoes -23.6075
240
root 7.66211 16.1321 26.2815 -155.111 3.4195 176.116
lowerback -24.8365 -1.17013 -8.71003
upperback -0.297775 1.89563 -2.83756
thorax 13.5225 0.618507 2.46562
lowerneck -2.04194 -0.905419 -1.52145
upperneck 16.2588 -2.50997 2.89104
head 5.27342 -1.50622 0.989829
rclavicle 2.74323e-014 -8.0309e-014
rhumerus -33.4614 -9.27771 -83.5018
rradius 39.0056
rwrist -3.84736
rhand -6.35227 -53.8921
rfingers 7.12502
rthumb 19.4937 -82.9349
lclavicle 2.74323e-014 -8.0309e-014
lhumerus -31.8797 22.6847 68.6082
lradius 12.1052
lwrist -19.5791
lhand -19.9533 -13.7565
lfingers 7.12502
lthumb 6.38489 16.1272
rfemur -27.7048 1.63339 19.5235
rtibia 49.2469
rfoot -8.79787 1.86736
rtoes -34.5786
lfemur -35.8779 -8.5367 -23.5213
ltibia 17.7069
lfoot -7.86048 1.87312
ltoes -27.0318
241
root 7.6513 16.1321 26.1936 -154.932 3.26525 176.072
lowerback -25.3744 -1.24647 -8.60203
upperback -0.0720758 1.86211 -2.95371
thorax 14.1047 0.585428 2.26243
lowerneck -2.37767 -0.974725 -1.37384
upperneck 16.0811 -2.59088 3.0575
head 5.27802 -1.50848 1.01149
rclavicle 4.37326e-015 4.77083e-015
rhumerus -33.263 -9.95341 -83.3065
rradius 38.8149
rwrist -3.59768
rhand -6.4634 -53.514
rfingers 7.12502
rthumb 19.3868 -82.5676
lclavicle 4.37326e-015 4.77083e-015
lhumerus -30.9838 22.9412 68.7963
lradius 11.8946
lwrist -20.1993
lhand -19.9052 -14.0476
lfingers 7.12502
lthumb 6.43133 15.8348
rfemur -29.451 1.02787 19.4657
rtibia 51.8137
rfoot -6.75876 1.68494
rtoes -33.4184
lfemur -35.6778 -8.41296 -23.7193
ltibia 17.5914
lfoot -7.85341 1.52908
ltoes -30.1413
242
root 7.63831 16.1303 26.0994 -154.915 3.1797 176.059
lowerback -25.2974 -1.42877 -8.69068
upperback -0.18224 1.6221 -2.85011
thorax 13.948 0.478278 2.34597
lowerneck -2.25742 -0.941628 -1.52289
upperneck 16.0446 -2.55581 3.14749
head 5.24782 -1.49932 1.06711
rclavicle -1.39149e-015 5.40694e-014
rhumerus -33.6918 -10.0542 -82.8251
rradius 38.6487
rwrist -3.56443
rhand -6.94243 -53.9892
rfingers 7.12502
rthumb 18.9262 -83.0884
lclavicle -1.39149e-015 5.40694e-014
lhumerus -30.8679 22.1465 69.4066
lradius 12.0201
lwrist -19.6127
lhand -19.9763 -13.7001
lfingers 7.12502
lthumb 6.36269 16.1843
rfemur -30.951 0.479985 19.4461
rtibia 54.3877
rfoot -6.05621 1.61567
rtoes -34.2645
lfemur -35.1891 -8.21864 -23.9457
ltibia 17.3577
lfoot -7.98896 1.09362
ltoes -29.2857
243
root 7.63256 16.1328 26.0111 -155.19 2.90785 176.133
lowerback -24.9231 -1.57733 -8.73262
upperback -0.136716 1.35289 -2.69854
thorax 13.8128 0.34248 2.4419
lowerneck -2.42382 -0.929008 -1.61438
upperneck 16.1193 -2.51813 3.07594
head 5.29848 -1.48719 1.06039
rclavicle -7.95139e-016 8.42847e-014
rhumerus -34.0854 -10.1882 -82.3437
rradius 38.6633
rwrist -3.56947
rhand -7.33802 -54.7227
rfingers 7.12502
rthumb 18.5457 -83.8586
lclavicle -7.95139e-016 8.42847e-014
lhumerus -30.5162 21.4265 70.1091
lradius 12.1833
lwrist -19.1345
lhand -19.9589 -12.5493
lfingers 7.12502
lthumb 6.37953 17.3346
rfemur -32.1168 0.00436994 19.6409
rtibia 56.8493
rfoot -5.72113 1.33209
rtoes -35.729
lfemur -34.4669 -8.18286 -23.9353
ltibia 17.2252
lfoot -8.28461 0.854199
ltoes -27.2181
244
root 7.6155 16.133 25.9295 -155.169 2.64348 175.949
lowerback -24.8166 -1.7474 -8.80462
upperback -0.132501 1.14072 -2.69729
thorax 13.7798 0.244574 2.40749
lowerneck -2.50653 -0.963498 -1.55889
upperneck 16.0095 -2.53788 3.01448
head 5.27787 -1.49037 1.03103
rclavicle 1.15295e-014 4.53229e-014
rhumerus -34.2913 -10.6848 -81.863
rradius 38.3936
rwrist -3.26394
rhand -7.38038 -54.4023
rfingers 7.12502
rthumb 18.505 -83.5422
lclavicle 1.15295e-014 4.53229e-014
lhumerus -30.0314 21.4738 70.4556
lradius 12.1704
lwrist -19.5634
lhand -19.5352 -12.9874
lfingers 7.12502
lthumb 6.78853 16.8837
rfemur -33.6285 -0.757633 19.5671
rtibia 59.0415
rfoot -5.85651 0.456696
rtoes -37.9429
lfemur -34.0598 -8.04656 -24.4076
ltibia 17.1066
lfoot -8.34069 0.439135
ltoes -26.4497
245
root 7.60697 16.134 25.841 -155.367 2.52695 175.911
lowerback -24.6613 -1.78333 -8.79161
upperback -0.0167846 1.07214 -2.72844
thorax 13.838 0.205988 2.33631
lowerneck -2.21643 -1.05353 -1.548
upperneck 15.4638 -2.64181 3.23566
head 5.06483 -1.51948 1.09791
rclavicle 4.17448e-015 -6.12257e-014
rhumerus -34.4384 -11.2713 -81.5009
rradius 38.0921
rwrist -2.99449
rhand -7.71356 -54.443
rfingers 7.12502
rthumb 18.1844 -83.613
lclavicle 4.17448e-015 -6.12257e-014
lhumerus -29.4244 21.449 70.7453
lradius 12.079
lwrist -20.0588
lhand -19.9905 -12.6728
lfingers 7.12502
lthumb 6.34898 17.212
rfemur -34.8953 -1.31271 19.6483
rtibia 60.9613
rfoot -5.90567 -1.14854
rtoes -37.4167
lfemur -33.2999 -7.69348 -24.7145
ltibia 16.7786
lfoot -8.33321 0.159702
ltoes -25.2173
246
root 7.59878 16.1331 25.7509 -155.618 2.53734 175.916
lowerback -24.4918 -1.74879 -8.74035
upperback 0.104478 1.08509 -2.7777
thorax 13.8868 0.207364 2.25173
lowerneck -1.99792 -1.18692 -1.55251
upperneck 15.081 -2.82079 3.45235
head 4.91729 -1.59112 1.16071
rclavicle -4.57205e-015 1.43125e-014
rhumerus -34.7253 -11.9255 -81.0994
rradius 37.972
rwrist -2.8895
rhand -7.5616 -54.4095
rfingers 7.12502
rthumb 18.3306 -83.5658
lclavicle -4.57205e-015 1.43125e-014
lhumerus -28.7774 20.7173 71.307
lradius 12.0913
lwrist -19.9272
lhand -20.3851 -13.1907
lfingers 7.12502
lthumb 5.96801 16.7053
rfemur -36.0863 -1.62909 19.6948
rtibia 62.7391
rfoot -6.97568 -3.04963
rtoes -37.749
lfemur -32.4383 -7.32902 -24.9594
ltibia 16.3921
lfoot -8.45938 -0.0935355
ltoes -22.6379
247
root 7.58867 16.1341 25.6618 -155.938 2.5887 175.862
lowerback -24.1754 -1.70141 -8.80262
upperback 0.222576 1.11181 -2.75492
thorax 13.8435 0.204284 2.31838
lowerneck -2.26504 -1.27286 -1.65547
upperneck 15.2943 -2.945 3.47555
head 5.03323 -1.65308 1.17503
rclavicle 7.95139e-015 -3.97569e-015
rhumerus -34.9032 -12.969 -80.3236
rradius 37.51
rwrist -2.60596
rhand -6.52239 -53.5941
rfingers 7.12502
rthumb 19.3301 -82.6534
lclavicle 7.95139e-015 -3.97569e-015
lhumerus -28.1584 19.6815 72.1571
lradius 12.2327
lwrist -19.4228
lhand -20.8297 -13.781
lfingers 7.12502
lthumb 5.53876 16.1266
rfemur -37.1506 -1.81929 19.5964
rtibia 64.2631
rfoot -9.02822 -4.74399
rtoes -39.9963
lfemur -31.5468 -6.91512 -25.318
ltibia 16.0783
lfoot -8.51929 -0.42987
ltoes -22.8951
248
root 7.57842 16.1335 25.5773 -156.036 2.49033 175.883
lowerback -24.0451 -1.69559 -8.76754
upperback 0.324494 1.06305 -2.64674
thorax 13.8922 0.165672 2.40177
lowerneck -2.77566 -1.2288 -1.93791
upperneck 15.6647 -2.87679 3.50204
head 5.23632 -1.62581 1.22725
rclavicle -7.7526e-015 3.02153e-014
rhumerus -34.994 -13.7605 -79.5417
rradius 37.0252
rwrist -2.40545
rhand -5.9344 -53.5134
rfingers 7.12502
rthumb 19.8954 -82.515
lclavicle -7.7526e-015 3.02153e-014
lhumerus -27.5167 18.8419 73.0857
lradius 12.48
lwrist -18.9719
lhand -21.3227 -13.5992
lfingers 7.12502
lthumb 5.06274 16.3204
rfemur -38.3981 -2.0779 19.6181
rtibia 65.4639
rfoot -10.2302 -6.14219
rtoes -39.7763
lfemur -31.0219 -6.709 -25.4764
ltibia 15.9186
lfoot -8.54624 -0.693772
ltoes -25.6022
249
root 7.56571 16.1343 25.4923 -156.035 2.23833 176.026
lowerback -24.0702 -1.71628 -8.51598
upperback 0.397439 0.942153 -2.55676
thorax 14.0042 0.111322 2.31731
lowerneck -2.75629 -1.24716 -2.03303
upperneck 15.5536 -2.88489 3.54157
head 5.20053 -1.62915 1.25573
rclavicle 6.55989e-015 -1.04958e-013
rhumerus -35.222 -14.3576 -78.965
rradius 36.7292
rwrist -2.27287
rhand -6.2927 -53.832
rfingers 7.12502
rthumb 19.551 -82.869
lclavicle 6.55989e-015 -1.04958e-013
lhumerus -26.9109 18.0531 73.879
lradius 12.8327
lwrist -18.4956
lhand -21.6113 -12.9682
lfingers 7.12502
lthumb 4.78407 16.9577
rfemur -39.6355 -2.45405 19.7988
rtibia 65.8803
rfoot -10.4407 -7.55409
rtoes -39.8467
lfemur -30.6069 -6.84551 -25.3699
ltibia 15.7648
lfoot -8.69671 -0.820174
ltoes -24.6873
